<svg xmlns="http://www.w3.org/2000/svg" version="1.1" xmlns:xlink="http://www.w3.org/1999/xlink" xmlns:svgjs="http://svgjs.dev/svgjs" width="1500" height="1500" viewBox="0 0 1500 1500"><rect width="1500" height="1500" fill="#ffffff"></rect><g transform="matrix(0.6666666666666666,0,0,0.6666666666666666,249.62613878080418,427.2615384615384)"><svg viewBox="0 0 382 247" data-background-color="#ffffff" preserveAspectRatio="xMidYMid meet" height="969" width="1500" xmlns="http://www.w3.org/2000/svg" xmlns:xlink="http://www.w3.org/1999/xlink"><g id="tight-bounds" transform="matrix(1,0,0,1,0.14281498573279805,-0.09999999999999432)"><svg viewBox="0 0 381.7143700285344 247.2" height="247.2" width="381.7143700285344"><g><svg viewBox="0 0 381.7143700285344 247.2" height="247.2" width="381.7143700285344"><g><svg viewBox="0 0 678.0136684483628 439.0848026704005" height="247.2" width="381.7143700285344"><g><rect width="22.154981908537728" height="439.0848026704005" x="264.20003101987" y="0" fill="#1e55b3" opacity="1" stroke-width="0" stroke="transparent" fill-opacity="1" class="rect-qz-0" data-fill-palette-color="primary" rx="1%" id="qz-0" data-palette-color="#1e55b3"></rect></g><g transform="matrix(1,0,0,1,344.3523477675117,1.0922507529114114)"><svg viewBox="0 0 333.6613206808511 436.9003011645777" height="436.9003011645777" width="333.6613206808511"><g id="textblocktransform"><svg viewBox="0 0 333.6613206808511 436.9003011645777" height="436.9003011645777" width="333.6613206808511" id="textblock"><g><svg viewBox="0 0 333.6613206808511 245.672304" height="245.672304" width="333.6613206808511"><g transform="matrix(1,0,0,1,0,0)"><svg width="333.6613206808511" viewBox="2.8 -28 38.300000000000004 28.2" height="245.672304" data-palette-color="#1e55b3"><path d="M13 0L2.8 0 2.8-0.8 6.35-2.45 7.3-25.55 3.45-27.2 3.45-28 13.1-28 22.25-7.5 31.7-28 40.9-28 40.9-27.2 37.2-25.85 37.9-2.45 41.1-0.8 41.1 0 29.5 0 29.5-0.8 32.85-2.4 32.4-23.15 21.65 0.2 20.15 0.2 9.85-23.1 9.35-2.4 13-0.8 13 0Z" opacity="1" transform="matrix(1,0,0,1,0,0)" fill="#1e55b3" class="wordmark-text-0" data-fill-palette-color="primary" id="text-0"></path></svg></g></svg></g><g transform="matrix(1,0,0,1,0,303.669638839104)"><svg viewBox="0 0 195.89256137172765 133.2306623254737" height="133.2306623254737" width="195.89256137172765"><g transform="matrix(1,0,0,1,0,0)"><svg width="195.89256137172765" viewBox="-1 -33.7 49.55 33.7" height="133.2306623254737" data-palette-color="#ff585f"><path d="M31.15-2.75L34.8-2.35 34.75 0 21.35 0 21.05-1.6Q22.65-2.35 25.95-3.35L25.95-3.35 23.3-10.05 9.8-10.05 7-2.95 12.25-2.35 12.2 0-0.7 0-1-1.6Q0.25-2.2 3.15-3.1L3.15-3.1 14.85-31.45 14.5-32.35 18.45-33.7 31.15-2.75ZM11-13.1L22.1-13.1 16.5-27.2 11-13.1ZM43.7-2.9L48.55-2.35 48.5 0 35.1 0 34.8-1.6 39.05-3.15 39.05-29.7 35.2-30.15 35.25-32.5 47.65-32.5 47.95-30.9 43.7-29.35 43.7-2.9Z" opacity="1" transform="matrix(1,0,0,1,0,0)" fill="#ff585f" class="slogan-text-1" data-fill-palette-color="secondary" id="text-1"></path></svg></g></svg></g></svg></g></svg></g><g transform="matrix(1,0,0,1,0,90.14795495167974)"><svg viewBox="0 0 206.20269618076597 258.78889276704103" height="258.78889276704103" width="206.20269618076597"><g><svg xmlns="http://www.w3.org/2000/svg" xmlns:xlink="http://www.w3.org/1999/xlink" version="1.1" x="0" y="0" viewBox="9.499457243692003 2.9962160992661664 51.001109046291276 64.00750710073383" style="enable-background:new 0 0 70 70;" xml:space="preserve" height="258.78889276704103" width="206.20269618076597" class="icon-icon-0" data-fill-palette-color="accent" id="icon-0"><path d="M11.035 34.952c-0.041 0.034-0.079 0.07-0.113 0.11l-0.563 0.637c-0.905 1.025-1.115 2.493-0.536 3.74 0.444 0.956 1.056 1.794 1.822 2.495L11.147 42.752c-0.364 0.597-0.427 1.313-0.172 1.964 0.174 0.445 0.479 0.812 0.869 1.06-0.265 0.372-0.41 0.821-0.407 1.299 0.005 0.788 0.414 1.498 1.093 1.896l0.876 0.516c0.066 0.039 0.107 0.111 0.107 0.187v0.487c0 1.72 0.75 3.347 2.058 4.464 1.308 1.117 3.031 1.603 4.719 1.336l7.577-1.098c0.601-0.097 1.201 0.207 1.497 0.749 0.809 1.483 2.046 4.787 1.242 10.246-0.081 0.546 0.297 1.055 0.843 1.135 0.05 0.007 0.099 0.011 0.148 0.011 0.487 0 0.915-0.357 0.988-0.854 0.845-5.733-0.33-9.416-1.465-11.496-0.701-1.284-2.132-1.996-3.553-1.769l-7.578 1.098c-1.12 0.179-2.257-0.143-3.119-0.879-0.862-0.736-1.357-1.809-1.357-2.943v-0.487c0-0.782-0.419-1.514-1.093-1.911l-0.876-0.515c-0.088-0.052-0.107-0.13-0.107-0.186 0-0.056 0.018-0.135 0.105-0.188l0.957-0.579c0.34-0.206 0.526-0.594 0.473-0.989-0.053-0.395-0.335-0.72-0.718-0.828l-1.274-0.362c-0.086-0.024-0.125-0.084-0.143-0.13-0.018-0.046-0.03-0.116 0.017-0.192l0.593-0.973c0.456-0.747 0.317-1.694-0.329-2.252-0.628-0.543-1.126-1.207-1.481-1.973-0.245-0.527-0.158-1.145 0.221-1.573l0.511-0.579c3.447-2.873 4.529-6.541 3.215-10.906-3.216-10.688 5.879-16.204 8.895-18.032 3.023-1.834 15.292-4.306 24.327-0.578 4.637 1.914 7.553 5.162 8.665 9.654 3.078 12.429-1.522 18.928-3.643 21.145-0.878 0.918-1.658 1.876-2.319 2.848l-0.503 0.74c-2.661 3.912-3.973 8.472-3.694 12.839 0.476 7.468 4.829 12.321 5.014 12.524 0.372 0.408 1.003 0.437 1.41 0.065 0.408-0.371 0.438-1.003 0.068-1.412-0.041-0.044-4.067-4.562-4.496-11.304-0.25-3.926 0.941-8.041 3.352-11.587l0.504-0.741c0.598-0.88 1.308-1.752 2.11-2.59 2.35-2.457 7.456-9.615 4.139-23.008-1.274-5.144-4.586-8.852-9.844-11.022C40.361 1.28 27.42 3.384 23.415 5.812c-8.896 5.396-12.176 12.227-9.746 20.303C14.751 29.71 13.889 32.6 11.035 34.952z" fill="#ff585f" data-fill-palette-color="accent"></path><path d="M49.5 27.504v-1.5h2.5c0.827 0 1.5-0.673 1.5-1.5v-7c0-0.827-0.673-1.5-1.5-1.5h-2.5v-1.5c0-0.827-0.673-1.5-1.5-1.5h-24c-0.827 0-1.5 0.673-1.5 1.5v13c0 0.827 0.673 1.5 1.5 1.5h24C48.827 29.004 49.5 28.331 49.5 27.504zM49.5 18.004h2v6h-2V18.004zM47.5 17.004v8 2h-23v-12h23V17.004z" fill="#ff585f" data-fill-palette-color="accent"></path><path d="M33.801 25.719c0.194 0.19 0.447 0.285 0.699 0.285 0.26 0 0.52-0.101 0.715-0.302l3.908-4c0.281-0.288 0.363-0.716 0.207-1.086-0.156-0.371-0.519-0.612-0.921-0.612h-1.495l2.293-2.293c0.391-0.391 0.391-1.023 0-1.414s-1.023-0.391-1.414 0l-4 4c-0.286 0.286-0.372 0.716-0.217 1.09 0.155 0.374 0.52 0.617 0.924 0.617h1.533l-2.249 2.301C33.399 24.7 33.406 25.333 33.801 25.719z" fill="#ff585f" data-fill-palette-color="accent"></path><path d="M39.5 67.004c0.552 0 1-0.448 1-1v-23c0-2.757-2.243-5-5-5h-5v-1.5c0-0.827-0.673-1.5-1.5-1.5h-5c-0.827 0-1.5 0.673-1.5 1.5v5c0 0.827 0.673 1.5 1.5 1.5h5c0.827 0 1.5-0.673 1.5-1.5v-1.5h5c1.654 0 3 1.346 3 3v23C38.5 66.556 38.947 67.004 39.5 67.004zM28.5 41.004h-4v-4h4V41.004z" fill="#ff585f" data-fill-palette-color="accent"></path></svg></g></svg></g></svg></g></svg></g><defs></defs></svg><rect width="381.7143700285344" height="247.2" fill="none" stroke="none" visibility="hidden"></rect></g></svg></g></svg>